<svg xmlns="http://www.w3.org/2000/svg" viewBox="80 90 2012 520" width="160" height="42">
  <title>카카오 상담</title>
  <!-- Icon and lettering traced from the approved generated button; no font or remote asset dependency. -->
  <defs>
    <linearGradient id="yellow" x1="0" y1="0" x2="0" y2="1">
      <stop offset="0" stop-color="#fff136"/>
      <stop offset="0.48" stop-color="#fee500"/>
      <stop offset="1" stop-color="#f5cd00"/>
    </linearGradient>
  </defs>
  <path d="M101,294 103,421 114,460 129,490 156,524 185,548 229,570 278,580 1902,579 1957,564 1989,546 2015,524 2053,470 2070,404 2069,283 2058,239 2040,203 2002,159 1973,138 1924,117 1883,110 277,111 247,117 205,134 180,150 148,180 115,234Z" transform="translate(0 10)" fill="#9c7b00" opacity=".18"/>
  <path d="M101,294 103,421 114,460 129,490 156,524 185,548 229,570 278,580 1902,579 1957,564 1989,546 2015,524 2053,470 2070,404 2069,283 2058,239 2040,203 2002,159 1973,138 1924,117 1883,110 277,111 247,117 205,134 180,150 148,180 115,234Z" fill="url(#yellow)" stroke="#e6c700" stroke-width="8"/>
  <path d="M1711,362 1586,362 1586,433 1711,433Z M1617,386 1679,385 1680,409 1618,410Z M1400,391 1401,407 1409,420 1424,429 1457,436 1489,435 1513,429 1532,415 1537,400 1535,386 1523,372 1499,363 1472,360 1423,367 1405,380Z M1432,394 1449,384 1481,383 1500,389 1504,402 1487,412 1456,413 1438,408 1432,401Z M1083,268 998,268 998,292 1055,293 1052,313 991,317 993,341 1044,338 1021,364 987,385 1004,408 1041,383 1067,352 1081,313Z M902,268 817,268 817,291 873,292 870,313 810,316 811,340 862,337 838,364 806,384 822,406 858,383 886,350 900,309Z M1570,260 1570,344 1624,344 1668,339 1666,315 1628,320 1600,319 1600,285 1651,284 1651,260Z M1421,257 1420,284 1413,304 1397,322 1379,333 1397,356 1418,342 1437,319 1455,340 1475,352 1492,329 1473,318 1458,301 1452,284 1451,257Z M1186,279 1176,300 1179,327 1201,351 1231,361 1231,389 1163,390 1164,416 1331,416 1331,390 1263,389 1263,362 1297,349 1311,335 1317,322 1317,296 1301,272 1272,259 1232,257 1204,265Z M1211,297 1231,283 1259,282 1281,294 1286,314 1282,323 1267,334 1235,336 1220,330 1212,322 1208,311Z M1681,252 1681,353 1711,353 1711,316 1736,315 1736,290 1711,288 1711,252Z M1502,252 1502,356 1532,356 1533,315 1557,314 1557,289 1533,288 1533,252Z M1131,252 1101,253 1101,432 1131,432 1131,348 1156,346 1156,322 1131,321Z M920,253 920,432 950,432 950,347 974,346 974,322 950,321 950,253Z M689,259 666,239 637,223 610,214 574,209 514,216 477,231 448,251 428,272 415,294 407,320 406,347 411,369 423,393 442,415 466,433 450,488 461,485 516,453 554,458 606,453 645,439 677,418 704,386 718,345 718,320 712,296Z M620,318 637,318 650,331 650,346 636,360 621,360 607,346 607,331Z M558,317 575,320 585,333 582,351 567,361 550,357 541,344 544,327Z M493,317 510,320 520,334 518,349 502,361 486,358 475,341 479,326Z" fill="#211813" fill-rule="evenodd"/>
</svg>
